<svg width="46" height="43" viewBox="0 0 46 43" fill="none" xmlns="http://www.w3.org/2000/svg">
<path id="Exclude" fill-rule="evenodd" clip-rule="evenodd" d="M25.2186 38.5552V34.1103H42.9855C44.1769 34.1103 45.1864 33.108 45.1864 31.8724V3.01214C45.1864 1.77203 44.2013 0.77417 42.9855 0.77417H3.01446C1.82305 0.77417 0.813567 1.77648 0.813567 3.01214V31.8724C0.810934 32.1642 0.865822 32.4537 0.975085 32.7242C1.08435 32.9948 1.24584 33.241 1.4503 33.4489C1.65476 33.6568 1.89817 33.8223 2.16658 33.9358C2.43499 34.0493 2.72312 34.1086 3.01446 34.1103H20.7813V38.5552H11.9068V43H34.0932V38.5552H25.2186ZM12.4089 15.4857C12.2164 16.6441 12.2164 17.8262 12.4089 18.9845C13.5906 18.9556 14.6542 19.5222 15.0674 20.5204C15.4806 21.5185 15.1296 22.6711 14.2732 23.4868C14.9566 24.4425 15.7932 25.2787 16.7492 25.9617C17.5638 25.1053 18.7165 24.7543 19.7146 25.1675C20.7116 25.5807 21.2783 26.6432 21.2494 27.826C22.4084 28.0187 23.5913 28.0187 24.7503 27.826C24.7213 26.6443 25.2869 25.5807 26.2851 25.1675C27.2832 24.7543 28.4359 25.1053 29.2516 25.9617C30.2072 25.2783 31.0435 24.4417 31.7265 23.4857C30.87 22.6711 30.5191 21.5185 30.9323 20.5204C31.3455 19.5233 32.408 18.9566 33.5907 18.9856C33.7835 17.8266 33.7835 16.6437 33.5907 15.4847C32.4091 15.5136 31.3455 14.948 30.9323 13.9499C30.5191 12.9518 30.87 11.7991 31.7265 10.9835C31.043 10.0278 30.2064 9.19159 29.2505 8.50856C28.4359 9.36501 27.2832 9.71596 26.2851 9.30276C25.288 8.88956 24.7213 7.82705 24.7503 6.64433C23.5913 6.45158 22.4084 6.45158 21.2494 6.64433C21.2783 7.82597 20.7127 8.88956 19.7146 9.30276C18.7165 9.71596 17.5638 9.36501 16.7481 8.50856C15.7924 9.192 14.9562 10.0286 14.2732 10.9845C15.1296 11.7991 15.4806 12.9518 15.0674 13.9499C14.6542 14.947 13.5917 15.5136 12.4089 15.4857ZM25.2766 19.5118C24.6727 20.1157 23.8538 20.4549 22.9998 20.4549C22.1459 20.4549 21.3269 20.1157 20.7231 19.5118C20.1193 18.908 19.7801 18.0891 19.7801 17.2351C19.7801 16.3812 20.1193 15.5623 20.7231 14.9584C21.3269 14.3546 22.1459 14.0154 22.9998 14.0154C23.8538 14.0154 24.6727 14.3546 25.2766 14.9584C25.8804 15.5623 26.2196 16.3812 26.2196 17.2351C26.2196 18.0891 25.8804 18.908 25.2766 19.5118Z" fill="#FAFAFA"/>
</svg>
