<svg width="40" height="44" viewBox="0 0 40 44" fill="none" xmlns="http://www.w3.org/2000/svg">
<path id="Exclude" fill-rule="evenodd" clip-rule="evenodd" d="M39.5493 41.1911V15.1813H26.5164C25.9403 15.1813 25.3878 14.9528 24.9805 14.5461C24.5731 14.1393 24.3443 13.5877 24.3443 13.0125V0H2.61848C1.42163 0 0.450684 0.986783 0.450684 2.1514V41.2237C0.451259 41.7944 0.678762 42.3417 1.0832 42.7451C1.48765 43.1485 2.03594 43.3751 2.60762 43.3751H37.3923C37.6776 43.3731 37.9597 43.315 38.2224 43.2042C38.4852 43.0934 38.7235 42.9319 38.9238 42.7291C39.1241 42.5263 39.2825 42.2861 39.3898 42.0222C39.4971 41.7583 39.5513 41.4759 39.5493 41.1911ZM28.6886 10.8438H39.5493L28.6886 0.0065063V10.8438ZM9.91992 24.4073C9.91992 29.9745 14.4328 34.4874 20 34.4874C25.5673 34.4874 30.0802 29.9745 30.0802 24.4073C30.0802 18.84 25.5673 14.3271 20 14.3271C14.4328 14.3271 9.91992 18.84 9.91992 24.4073ZM21.0081 19.3672V24.4073H25.0401V26.4233H18.992V19.3672H21.0081Z" fill="white"/>
</svg>
