<svg width="42" height="43" viewBox="0 0 42 43" fill="none" xmlns="http://www.w3.org/2000/svg">
<path id="Exclude" fill-rule="evenodd" clip-rule="evenodd" d="M0.517578 31.8641H13.2303L5.84982 39.2451L9.06782 42.4634L18.7241 32.8063V38.6921H23.2757V32.8063L32.932 42.4634L36.15 39.2451L28.7696 31.8641H41.4823V27.3121H0.517578V31.8641ZM36.9306 0H5.06921C4.46563 0 3.88677 0.239793 3.45997 0.666626C3.03317 1.09346 2.7934 1.67237 2.7934 2.276V25.036H39.2065V2.276C39.2065 1.67237 38.9667 1.09346 38.5399 0.666626C38.1131 0.239793 37.5342 0 36.9306 0ZM18.538 17.9261L25.8423 13.0271C25.8895 12.9955 25.9281 12.9526 25.9549 12.9023C25.9817 12.852 25.9957 12.7958 25.9957 12.7387C25.9957 12.6817 25.9817 12.6255 25.9549 12.5752C25.9281 12.5248 25.8895 12.482 25.8423 12.4503L18.538 7.5513C18.4861 7.51656 18.4259 7.49663 18.3636 7.49364C18.3013 7.49064 18.2394 7.50469 18.1845 7.53429C18.1295 7.56388 18.0836 7.60792 18.0516 7.66171C18.0195 7.71549 18.0026 7.77702 18.0026 7.83972V17.6377C18.0026 17.7004 18.0195 17.7619 18.0516 17.8157C18.0836 17.8695 18.1295 17.9136 18.1845 17.9432C18.2394 17.9728 18.3013 17.9868 18.3636 17.9838C18.4259 17.9808 18.4861 17.9609 18.538 17.9261Z" fill="white"/>
</svg>
