<svg width="45" height="40" viewBox="0 0 45 40" fill="none" xmlns="http://www.w3.org/2000/svg">
<path id="Exclude" fill-rule="evenodd" clip-rule="evenodd" d="M44.7916 15.5533V37.7778C44.7916 38.3671 44.5567 38.9324 44.1387 39.3491C43.7206 39.7659 43.1536 40 42.5624 40H24.7291V15.5533H44.7916ZM20.2708 28.8867V40H2.43742C1.84621 40 1.27921 39.7659 0.86116 39.3491C0.44311 38.9324 0.208252 38.3671 0.208252 37.7778V28.8867H20.2708ZM20.2708 0V24.4422H0.208252V2.22222C0.208252 1.63285 0.44311 1.06762 0.86116 0.650874C1.27921 0.234126 1.84621 0 2.43742 0H20.2708ZM42.5624 0C43.1536 0 43.7206 0.234126 44.1387 0.650874C44.5567 1.06762 44.7916 1.63285 44.7916 2.22222V11.1089H24.7291V0H42.5624ZM9.55353 11.4286V7.5H10.8631V11.4286H14.7916V12.7381H10.8631V16.6667H9.55353V12.7381H5.62496V11.4286H9.55353ZM34.1368 23.3336V27.2622H30.2083V28.5717H34.1368V32.5003H35.4463V28.5717H39.3749V27.2622H35.4463V23.3336H34.1368Z" fill="white"/>
</svg>
